<?xml version="1.0" encoding="UTF-8" standalone="no"?>
<!-- Created with Inkscape (http://www.inkscape.org/) -->

<svg
   xmlns:dc="http://purl.org/dc/elements/1.1/"
   xmlns:cc="http://creativecommons.org/ns#"
   xmlns:rdf="http://www.w3.org/1999/02/22-rdf-syntax-ns#"
   xmlns:svg="http://www.w3.org/2000/svg"
   xmlns="http://www.w3.org/2000/svg"
   xmlns:sodipodi="http://sodipodi.sourceforge.net/DTD/sodipodi-0.dtd"
   xmlns:inkscape="http://www.inkscape.org/namespaces/inkscape"
   width="72"
   height="72"
   id="svg4455"
   version="1.1"
   inkscape:version="0.48.1 r9760"
   sodipodi:docname="ic_act_cancel.svg"
   inkscape:export-filename="/home/steve/p/DearFutureSelf/res/drawable-hdpi/ic_act_cancel.png"
   inkscape:export-xdpi="90"
   inkscape:export-ydpi="90">
  <defs
     id="defs4457" />
  <sodipodi:namedview
     id="base"
     pagecolor="#ffffff"
     bordercolor="#666666"
     borderopacity="1.0"
     inkscape:pageopacity="0.0"
     inkscape:pageshadow="2"
     inkscape:zoom="0.98994949"
     inkscape:cx="-200.75423"
     inkscape:cy="-27.50268"
     inkscape:document-units="px"
     inkscape:current-layer="layer1"
     showgrid="false" />
  <metadata
     id="metadata4460">
    <rdf:RDF>
      <cc:Work
         rdf:about="">
        <dc:format>image/svg+xml</dc:format>
        <dc:type
           rdf:resource="http://purl.org/dc/dcmitype/StillImage" />
        <dc:title></dc:title>
      </cc:Work>
    </rdf:RDF>
  </metadata>
  <g
     inkscape:label="Layer 1"
     inkscape:groupmode="layer"
     id="layer1"
     transform="translate(0,-980.36218)">
    <g
       transform="translate(-473.778,576.87018)"
       id="Close_x2F_Clear_x2F_Cancel"
       style="color:#000000;fill:#e6e6e6;fill-opacity:1;fill-rule:nonzero;stroke-width:1;stroke-linecap:butt;stroke-linejoin:miter;stroke-miterlimit:4;stroke-opacity:1;stroke-dasharray:none;stroke-dashoffset:0;marker:none;visibility:visible;display:inline;overflow:visible;enable-background:accumulate">
      <g
         id="g3687"
         style="color:#000000;fill:#e6e6e6;fill-opacity:1;fill-rule:nonzero;stroke-width:1;stroke-linecap:butt;stroke-linejoin:miter;stroke-miterlimit:4;stroke-opacity:1;stroke-dasharray:none;stroke-dashoffset:0;marker:none;visibility:visible;display:inline;overflow:visible;enable-background:accumulate">
        <path
           style="color:#000000;fill:#e6e6e6;fill-opacity:1;fill-rule:nonzero;stroke-width:1;stroke-linecap:butt;stroke-linejoin:miter;stroke-miterlimit:4;stroke-opacity:1;stroke-dasharray:none;stroke-dashoffset:0;marker:none;visibility:visible;display:inline;overflow:visible;enable-background:accumulate"
           inkscape:connector-curvature="0"
           d="m 514.172,439.484 4.041,-4.041 c 0.26,-0.26 0.404,-0.605 0.404,-0.975 0,-0.371 -0.143,-0.717 -0.404,-0.977 l -2.441,-2.443 c -0.521,-0.521 -1.434,-0.52 -1.949,0 l -4.044,4.043 -4.043,-4.043 c -0.52,-0.52 -1.429,-0.52 -1.949,0 l -2.443,2.443 c -0.26,0.26 -0.402,0.605 -0.402,0.975 0,0.37 0.143,0.717 0.402,0.977 l 4.043,4.041 -4.041,4.041 c -0.261,0.26 -0.404,0.605 -0.404,0.975 0,0.371 0.143,0.717 0.402,0.979 l 2.444,2.443 c 0.521,0.52 1.429,0.52 1.95,-0.002 l 4.041,-4.041 4.042,4.041 c 0.26,0.26 0.605,0.404 0.975,0.404 0.37,0 0.715,-0.145 0.975,-0.404 l 2.441,-2.439 c 0.262,-0.262 0.406,-0.609 0.406,-0.98 0,-0.369 -0.145,-0.717 -0.404,-0.973 l -4.042,-4.044 z"
           id="path3689" />
        <path
           style="color:#000000;fill:#e6e6e6;fill-opacity:1;fill-rule:nonzero;stroke-width:1;stroke-linecap:butt;stroke-linejoin:miter;stroke-miterlimit:4;stroke-opacity:1;stroke-dasharray:none;stroke-dashoffset:0;marker:none;visibility:visible;display:inline;overflow:visible;enable-background:accumulate"
           inkscape:connector-curvature="0"
           d="m 509.778,425.027 c 7.976,0 14.464,6.488 14.464,14.465 0,7.975 -6.488,14.463 -14.464,14.463 -7.975,0 -14.464,-6.488 -14.464,-14.463 0,-7.976 6.489,-14.465 14.464,-14.465 m 0,-8.035 c -12.426,0 -22.5,10.073 -22.5,22.5 0,12.426 10.074,22.5 22.5,22.5 12.427,0 22.5,-10.074 22.5,-22.5 -10e-4,-12.428 -10.073,-22.5 -22.5,-22.5 l 0,0 z"
           id="path3691" />
      </g>
    </g>
  </g>
</svg>
