<?xml version="1.0" encoding="UTF-8" standalone="no"?>
<svg
   xmlns:dc="http://purl.org/dc/elements/1.1/"
   xmlns:cc="http://creativecommons.org/ns#"
   xmlns:rdf="http://www.w3.org/1999/02/22-rdf-syntax-ns#"
   xmlns:svg="http://www.w3.org/2000/svg"
   xmlns="http://www.w3.org/2000/svg"
   xmlns:sodipodi="http://sodipodi.sourceforge.net/DTD/sodipodi-0.dtd"
   xmlns:inkscape="http://www.inkscape.org/namespaces/inkscape"
   version="1.1"
   x="0px"
   y="0px"
   width="480px"
   height="480px"
   viewBox="0 0 480 480"
   xml:space="preserve"
   id="svg3497"
   inkscape:version="0.48.1 r9760"
   sodipodi:docname="mail_delayed.svg"><metadata
   id="metadata3512"><rdf:RDF><cc:Work
       rdf:about=""><dc:format>image/svg+xml</dc:format><dc:type
         rdf:resource="http://purl.org/dc/dcmitype/StillImage" /><dc:title></dc:title></cc:Work></rdf:RDF></metadata><defs
   id="defs3510">
  	
  	
  	
  	
  </defs><sodipodi:namedview
   pagecolor="#ffffff"
   bordercolor="#666666"
   borderopacity="1"
   objecttolerance="10"
   gridtolerance="10"
   guidetolerance="10"
   inkscape:pageopacity="0"
   inkscape:pageshadow="2"
   inkscape:window-width="640"
   inkscape:window-height="480"
   id="namedview3508"
   showgrid="false"
   inkscape:snap-bbox="true"
   showguides="true"
   inkscape:guide-bbox="true"
   inkscape:bbox-paths="true"
   inkscape:snap-bbox-edge-midpoints="true"
   inkscape:zoom="1"
   inkscape:cx="245.11017"
   inkscape:cy="228"
   inkscape:current-layer="layer1" />
  
<g
   inkscape:groupmode="layer"
   id="layer1"
   inkscape:label="pre_clip"
   style="display:inline"><g
     id="g3787"><path
       inkscape:connector-curvature="0"
       id="path3500"
       d="m 40.380767,84.49022 c -4.920237,0 -5.872668,2.615631 -2.086859,5.771469 L 226.69812,248.27602 c 3.79059,3.15703 9.94147,3.15913 13.69501,-0.0326 L 425.92792,90.294296 c 3.76309,-3.197675 2.76935,-5.804076 -2.15208,-5.804076 l -383.395073,0 z m 405.404913,25.75966 c -1.09004,-0.0387 -2.40701,0.52323 -3.81504,1.72818 L 322.1067,214.00589 c -3.76549,3.19289 -4.07489,8.73934 -0.68475,12.32551 l 121.23344,127.95053 c 3.38775,3.58379 6.13015,2.48545 6.13015,-2.44554 l 0,-236.72804 c 0,-3.08112 -1.18313,-4.79396 -2.99986,-4.85847 z m -424.284463,2.57597 c -1.829512,0.0839 -3.032467,1.8092 -3.032467,4.89107 l 0,234.11947 c 0,4.93099 2.773816,6.02932 6.162755,2.44554 L 145.34324,226.85311 c 3.38894,-3.58498 3.09986,-9.12033 -0.68475,-12.2929 L 25.348862,114.48881 c -1.417437,-1.1915 -2.749939,-1.71329 -3.847645,-1.66296 z M 293.67325,240.9068 c -2.06298,0.0735 -4.1293,0.78571 -5.77147,2.18468 l -38.73732,32.99846 c -3.75473,3.19768 -9.32846,7.22561 -12.42333,8.99958 l -3.09768,0 -3.09768,0 c -3.0626,-1.73332 -8.63871,-5.7256 -12.42333,-8.90176 l -39.096,-32.7702 c -3.78102,-3.17138 -9.61653,-2.83382 -13.01026,0.74996 L 43.152376,373.84623 c -3.388939,3.58976 -2.126778,6.52143 2.804216,6.52143 l 375.341108,0 c 4.931,0 6.19914,-2.93167 2.80422,-6.52143 L 300.91204,243.80884 c -1.90695,-2.01587 -4.5864,-2.9966 -7.23879,-2.90204 z" /><path
       sodipodi:nodetypes="sssss"
       id="path3540"
       d="m 352.22776,136.80973 c -81.04768,0 -146.76052,65.71284 -146.76052,146.76134 0,81.05665 65.71284,146.76132 146.76052,146.76132 81.0493,0 146.75887,-65.70467 146.75887,-146.76132 0,-81.0485 -65.70957,-146.76134 -146.75887,-146.76134 z"
       inkscape:connector-curvature="0"
       style="fill:#ffffff" /><g
       id="clock"
       transform="matrix(0.67879405,0,0,0.67879405,192.24413,124.41978)"><path
         id="path3487"
         d="m 237.225,55.998 c -99.404,0 -180,80.596 -180,180.001 0,99.415 80.596,180.001 180,180.001 99.406,0 179.998,-80.586 179.998,-180.001 0,-99.405 -80.592,-180.001 -179.998,-180.001 z m 0,312.004 c -72.781,0 -132.002,-59.213 -132.002,-132.003 0,-72.781 59.221,-131.997 132.002,-131.997 72.781,0 131.998,59.216 131.998,131.997 0,72.79 -59.217,132.003 -131.998,132.003 z"
         inkscape:connector-curvature="0" /><path
         id="path3489"
         d="m 309.913,220.001 h -60.658 c -4.396,0 -10.531,-2.554 -13.625,-5.682 l -50.717,-51.227 c -3.102,-3.123 -8.189,-3.149 -11.32,-0.047 l -11.361,11.252 c -3.133,3.103 -3.154,8.185 -0.057,11.312 l 60.111,60.709 c 3.092,3.124 9.229,5.679 13.625,5.679 h 74.002 c 4.393,0 7.998,-3.59 7.998,-8 V 228 c 0,-4.392 -3.606,-7.999 -7.998,-7.999 z"
         inkscape:connector-curvature="0" /></g></g></g><g
   inkscape:groupmode="layer"
   id="layer2"
   inkscape:label="clip"
   style="display:none"><path
     d="m 40.375,84.5 c -4.920237,0 -5.879559,2.594162 -2.09375,5.75 L 213.0625,236.84375 c 19.51573,-58.14382 74.44338,-100.03125 139.15625,-100.03125 6.03188,0 11.97131,0.38659 17.8125,1.09375 l 55.90625,-47.625 C 429.70059,87.083575 428.70268,84.5 423.78125,84.5 L 40.375,84.5 z m 405,25.75 c -1.00157,0.0981 -2.17422,0.66442 -3.40625,1.71875 L 402.4375,145.625 c 17.16795,6.25111 32.85049,15.61068 46.34375,27.40625 l 0,-57.9375 c 0,-3.08112 -1.18327,-4.77924 -3,-4.84375 -0.13626,-0.005 -0.26317,-0.014 -0.40625,0 z M 21.5,112.8125 c -1.829512,0.0839 -3.03125,1.82438 -3.03125,4.90625 l 0,234.125 c 0,4.93099 2.767311,6.02128 6.15625,2.4375 l 120.71875,-127.4375 c 3.38894,-3.58498 3.09711,-9.10868 -0.6875,-12.28125 L 25.34375,114.5 C 23.926313,113.3085 22.597706,112.76217 21.5,112.8125 z M 172.375,241.25 c -2.35572,0.13594 -4.64688,1.11436 -6.34375,2.90625 l -122.875,129.6875 c -3.388939,3.58976 -2.118494,6.53125 2.8125,6.53125 l 195.9375,0 c -22.68854,-25.83629 -36.4375,-59.72506 -36.4375,-96.8125 0,-5.80581 0.34412,-11.52635 1,-17.15625 l -27.4375,-23 c -1.89051,-1.58569 -4.30053,-2.29219 -6.65625,-2.15625 z"
     id="path3500-3"
     inkscape:connector-curvature="0" /><g
     transform="matrix(0.67879405,0,0,0.67879405,192.24413,124.41978)"
     id="clock-9"><path
       inkscape:connector-curvature="0"
       d="m 237.225,55.998 c -99.404,0 -180,80.596 -180,180.001 0,99.415 80.596,180.001 180,180.001 99.406,0 179.998,-80.586 179.998,-180.001 0,-99.405 -80.592,-180.001 -179.998,-180.001 z m 0,312.004 c -72.781,0 -132.002,-59.213 -132.002,-132.003 0,-72.781 59.221,-131.997 132.002,-131.997 72.781,0 131.998,59.216 131.998,131.997 0,72.79 -59.217,132.003 -131.998,132.003 z"
       id="path3487-0" /><path
       inkscape:connector-curvature="0"
       d="m 309.913,220.001 h -60.658 c -4.396,0 -10.531,-2.554 -13.625,-5.682 l -50.717,-51.227 c -3.102,-3.123 -8.189,-3.149 -11.32,-0.047 l -11.361,11.252 c -3.133,3.103 -3.154,8.185 -0.057,11.312 l 60.111,60.709 c 3.092,3.124 9.229,5.679 13.625,5.679 h 74.002 c 4.393,0 7.998,-3.59 7.998,-8 V 228 c 0,-4.392 -3.606,-7.999 -7.998,-7.999 z"
       id="path3489-4" /></g></g></svg>