<?xml version="1.0" encoding="UTF-8" standalone="no"?>
<svg
   xmlns:dc="http://purl.org/dc/elements/1.1/"
   xmlns:cc="http://creativecommons.org/ns#"
   xmlns:rdf="http://www.w3.org/1999/02/22-rdf-syntax-ns#"
   xmlns:svg="http://www.w3.org/2000/svg"
   xmlns="http://www.w3.org/2000/svg"
   xmlns:sodipodi="http://sodipodi.sourceforge.net/DTD/sodipodi-0.dtd"
   xmlns:inkscape="http://www.inkscape.org/namespaces/inkscape"
   version="1.1"
   x="0px"
   y="0px"
   width="480px"
   height="480px"
   viewBox="0 0 480 480"
   xml:space="preserve"
   id="svg8730"
   inkscape:version="0.48.1 r9760"
   sodipodi:docname="mail_delayed.svg"><metadata
   id="metadata8745"><rdf:RDF><cc:Work
       rdf:about=""><dc:format>image/svg+xml</dc:format><dc:type
         rdf:resource="http://purl.org/dc/dcmitype/StillImage" /><dc:title /></cc:Work></rdf:RDF></metadata><defs
   id="defs8743">
  	
  	
  	
  	
  </defs><sodipodi:namedview
   pagecolor="#ffffff"
   bordercolor="#666666"
   borderopacity="1"
   objecttolerance="10"
   gridtolerance="10"
   guidetolerance="10"
   inkscape:pageopacity="0"
   inkscape:pageshadow="2"
   inkscape:window-width="640"
   inkscape:window-height="480"
   id="namedview8741"
   showgrid="false"
   inkscape:zoom="0.49166667"
   inkscape:cx="261.35593"
   inkscape:cy="211.52542"
   inkscape:current-layer="svg8730" />
  
<g
   id="g3062"
   transform="matrix(1.0805541,0,0,1.0805541,-20.88039,-22.549187)"><path
     id="path8733"
     d="m 75.5625,112.25 c -4.116,0 -4.917,2.1725 -1.75,4.8125 l 157.59375,132.21875 c 3.171,2.641 8.32875,2.6075 11.46875,-0.0625 L 398.0625,117.125 c 3.148,-2.675 2.33575,-4.875 -1.78125,-4.875 l -320.71875,0 z m 338.65625,21.5625 c -0.80903,0.11179 -1.73719,0.5975 -2.71875,1.4375 l -100.28125,85.34375 c -3.15,2.671 -3.3985,7.3125 -0.5625,10.3125 l 32.1875,33.96875 c 10.04081,-3.34603 20.76986,-5.15625 31.90625,-5.15625 15.14926,0 29.5339,3.37013 42.46875,9.375 l 0,-131.21875 c 0,-2.83525 -1.22012,-4.30844 -3,-4.0625 z M 59.75,135.9375 c -1.530469,0.0702 -2.53125,1.51562 -2.53125,4.09375 l 0,195.875 c 0,4.125 2.32125,5.02925 5.15625,2.03125 l 101,-106.59375 c 2.835,-2.999 2.57225,-7.62725 -0.59375,-10.28125 L 62.96875,137.34375 C 61.783,136.347 60.668281,135.8954 59.75,135.9375 z m 227.6875,107.15625 c -1.72577,0.0615 -3.43875,0.67344 -4.8125,1.84375 l -32.40625,27.59375 c -3.141,2.675 -7.81725,6.04725 -10.40625,7.53125 l -2.59375,0 -2.5625,0 c -2.562,-1.45 -7.24025,-4.7805 -10.40625,-7.4375 l -32.6875,-27.4375 c -3.163,-2.653 -8.06725,-2.373 -10.90625,0.625 L 77.875,354.3125 c -2.835,3.003 -1.78125,5.4375 2.34375,5.4375 l 193.125,0 c 0.48812,-35.71283 19.59099,-67.07958 48.03125,-84.78125 L 293.5,245.53125 c -1.59525,-1.68637 -3.84365,-2.51661 -6.0625,-2.4375 z"
     inkscape:connector-curvature="0" /><g
     transform="translate(268.99802,17.432682)"
     id="g9361"><path
       id="path8801"
       d="m 105.76319,257.28816 c -47.736094,0 -86.440155,38.70406 -86.440155,86.44064 0,47.74138 38.704061,86.44064 86.440155,86.44064 47.73706,0 86.4392,-38.69926 86.4392,-86.44064 0,-47.73658 -38.70214,-86.44064 -86.4392,-86.44064 z m 0,149.83153 c -34.951114,0 -63.390406,-28.43545 -63.390406,-63.39089 0,-34.95112 28.439292,-63.38801 63.390406,-63.38801 34.95112,0 63.38849,28.43689 63.38849,63.38801 0,34.95544 -28.43737,63.39089 -63.38849,63.39089 z"
       inkscape:connector-curvature="0" /><path
       id="path8803"
       d="m 140.66965,336.04619 h -29.12937 c -2.11106,0 -5.05723,-1.22649 -6.54304,-2.72863 L 80.641763,308.71718 c -1.489652,-1.49974 -3.932547,-1.51223 -5.436126,-0.0226 l -5.455815,5.40347 c -1.504539,1.49013 -1.514623,3.93062 -0.02737,5.43228 l 28.866691,29.15386 c 1.484847,1.50022 4.431977,2.72719 6.543037,2.72719 h 35.53747 c 2.10962,0 3.84082,-1.724 3.84082,-3.84178 v -7.68213 c 0,-2.10914 -1.73168,-3.84131 -3.84082,-3.84131 z"
       inkscape:connector-curvature="0" /></g></g></svg>